<mxfile host="app.diagrams.net" modified="2023-01-05T11:27:26.466Z" agent="5.0 (Macintosh; Intel Mac OS X 10_15_7) AppleWebKit/605.1.15 (KHTML, like Gecko) Version/15.3 Safari/605.1.15" etag="NIYXQoNWu2dtzOVi9_wW" version="20.6.2" type="github">
  <diagram id="C5RBs43oDa-KdzZeNtuy" name="Page-1">
    <mxGraphModel dx="1258" dy="1864" grid="1" gridSize="10" guides="1" tooltips="1" connect="1" arrows="1" fold="1" page="1" pageScale="1" pageWidth="827" pageHeight="1169" math="0" shadow="0">
      <root>
        <mxCell id="WIyWlLk6GJQsqaUBKTNV-0" />
        <mxCell id="WIyWlLk6GJQsqaUBKTNV-1" parent="WIyWlLk6GJQsqaUBKTNV-0" />
        <mxCell id="9CYDn3pzDWSfcRw3aQHr-3" style="edgeStyle=orthogonalEdgeStyle;rounded=0;sketch=1;hachureGap=4;jiggle=2;orthogonalLoop=1;jettySize=auto;html=1;fontFamily=Architects Daughter;fontSource=https%3A%2F%2Ffonts.googleapis.com%2Fcss%3Ffamily%3DArchitects%2BDaughter;fontSize=16;" edge="1" parent="WIyWlLk6GJQsqaUBKTNV-1" source="9CYDn3pzDWSfcRw3aQHr-0" target="9CYDn3pzDWSfcRw3aQHr-2">
          <mxGeometry relative="1" as="geometry" />
        </mxCell>
        <mxCell id="9CYDn3pzDWSfcRw3aQHr-4" value="create" style="edgeLabel;html=1;align=center;verticalAlign=middle;resizable=0;points=[];fontSize=20;fontFamily=Architects Daughter;" vertex="1" connectable="0" parent="9CYDn3pzDWSfcRw3aQHr-3">
          <mxGeometry x="-0.2182" y="-2" relative="1" as="geometry">
            <mxPoint as="offset" />
          </mxGeometry>
        </mxCell>
        <mxCell id="9CYDn3pzDWSfcRw3aQHr-0" value="IncrementSource" style="rounded=0;whiteSpace=wrap;html=1;sketch=1;hachureGap=4;jiggle=2;fontFamily=Architects Daughter;fontSource=https%3A%2F%2Ffonts.googleapis.com%2Fcss%3Ffamily%3DArchitects%2BDaughter;fontSize=20;" vertex="1" parent="WIyWlLk6GJQsqaUBKTNV-1">
          <mxGeometry x="500" y="490" width="200" height="60" as="geometry" />
        </mxCell>
        <mxCell id="9CYDn3pzDWSfcRw3aQHr-31" style="edgeStyle=orthogonalEdgeStyle;rounded=0;sketch=1;hachureGap=4;jiggle=2;orthogonalLoop=1;jettySize=auto;html=1;entryX=0.5;entryY=1;entryDx=0;entryDy=0;fontFamily=Architects Daughter;fontSource=https%3A%2F%2Ffonts.googleapis.com%2Fcss%3Ffamily%3DArchitects%2BDaughter;fontSize=16;" edge="1" parent="WIyWlLk6GJQsqaUBKTNV-1" source="9CYDn3pzDWSfcRw3aQHr-1" target="9CYDn3pzDWSfcRw3aQHr-29">
          <mxGeometry relative="1" as="geometry" />
        </mxCell>
        <mxCell id="9CYDn3pzDWSfcRw3aQHr-33" value="new/ref" style="edgeStyle=orthogonalEdgeStyle;rounded=0;sketch=1;hachureGap=4;jiggle=2;orthogonalLoop=1;jettySize=auto;html=1;exitX=1;exitY=0.5;exitDx=0;exitDy=0;entryX=0;entryY=0.5;entryDx=0;entryDy=0;fontFamily=Architects Daughter;fontSource=https%3A%2F%2Ffonts.googleapis.com%2Fcss%3Ffamily%3DArchitects%2BDaughter;fontSize=16;" edge="1" parent="WIyWlLk6GJQsqaUBKTNV-1" source="9CYDn3pzDWSfcRw3aQHr-1" target="9CYDn3pzDWSfcRw3aQHr-32">
          <mxGeometry relative="1" as="geometry" />
        </mxCell>
        <mxCell id="9CYDn3pzDWSfcRw3aQHr-34" value="ref" style="edgeStyle=orthogonalEdgeStyle;rounded=0;sketch=1;hachureGap=4;jiggle=2;orthogonalLoop=1;jettySize=auto;html=1;entryX=0.5;entryY=1;entryDx=0;entryDy=0;fontFamily=Architects Daughter;fontSource=https%3A%2F%2Ffonts.googleapis.com%2Fcss%3Ffamily%3DArchitects%2BDaughter;fontSize=16;" edge="1" parent="WIyWlLk6GJQsqaUBKTNV-1" source="9CYDn3pzDWSfcRw3aQHr-1" target="9CYDn3pzDWSfcRw3aQHr-27">
          <mxGeometry relative="1" as="geometry">
            <Array as="points">
              <mxPoint x="940" y="150" />
              <mxPoint x="940" y="-30" />
              <mxPoint x="1030" y="-30" />
            </Array>
          </mxGeometry>
        </mxCell>
        <mxCell id="9CYDn3pzDWSfcRw3aQHr-40" style="edgeStyle=orthogonalEdgeStyle;rounded=0;sketch=1;hachureGap=4;jiggle=2;orthogonalLoop=1;jettySize=auto;html=1;fontFamily=Architects Daughter;fontSource=https%3A%2F%2Ffonts.googleapis.com%2Fcss%3Ffamily%3DArchitects%2BDaughter;fontSize=16;" edge="1" parent="WIyWlLk6GJQsqaUBKTNV-1" source="9CYDn3pzDWSfcRw3aQHr-1" target="9CYDn3pzDWSfcRw3aQHr-39">
          <mxGeometry relative="1" as="geometry" />
        </mxCell>
        <mxCell id="9CYDn3pzDWSfcRw3aQHr-1" value="IncrementSourceReader" style="rounded=0;whiteSpace=wrap;html=1;sketch=1;hachureGap=4;jiggle=2;fontFamily=Architects Daughter;fontSource=https%3A%2F%2Ffonts.googleapis.com%2Fcss%3Ffamily%3DArchitects%2BDaughter;fontSize=20;" vertex="1" parent="WIyWlLk6GJQsqaUBKTNV-1">
          <mxGeometry x="610" y="120" width="270" height="60" as="geometry" />
        </mxCell>
        <mxCell id="9CYDn3pzDWSfcRw3aQHr-2" value="SpliteEnumerator" style="rounded=0;whiteSpace=wrap;html=1;sketch=1;hachureGap=4;jiggle=2;fontFamily=Architects Daughter;fontSource=https%3A%2F%2Ffonts.googleapis.com%2Fcss%3Ffamily%3DArchitects%2BDaughter;fontSize=20;" vertex="1" parent="WIyWlLk6GJQsqaUBKTNV-1">
          <mxGeometry x="810" y="490" width="200" height="60" as="geometry" />
        </mxCell>
        <mxCell id="9CYDn3pzDWSfcRw3aQHr-19" value="open" style="edgeStyle=orthogonalEdgeStyle;rounded=0;sketch=1;hachureGap=4;jiggle=2;orthogonalLoop=1;jettySize=auto;html=1;exitX=1;exitY=0.5;exitDx=0;exitDy=0;entryX=0;entryY=0.5;entryDx=0;entryDy=0;fontFamily=Architects Daughter;fontSource=https%3A%2F%2Ffonts.googleapis.com%2Fcss%3Ffamily%3DArchitects%2BDaughter;fontSize=16;" edge="1" parent="WIyWlLk6GJQsqaUBKTNV-1" source="9CYDn3pzDWSfcRw3aQHr-5" target="9CYDn3pzDWSfcRw3aQHr-18">
          <mxGeometry relative="1" as="geometry" />
        </mxCell>
        <mxCell id="9CYDn3pzDWSfcRw3aQHr-5" value="HybirdSplitAssigner" style="rounded=0;whiteSpace=wrap;html=1;sketch=1;hachureGap=4;jiggle=2;fontFamily=Architects Daughter;fontSource=https%3A%2F%2Ffonts.googleapis.com%2Fcss%3Ffamily%3DArchitects%2BDaughter;fontSize=20;" vertex="1" parent="WIyWlLk6GJQsqaUBKTNV-1">
          <mxGeometry x="1170" y="610" width="200" height="60" as="geometry" />
        </mxCell>
        <mxCell id="9CYDn3pzDWSfcRw3aQHr-12" value="implementation" style="edgeStyle=orthogonalEdgeStyle;rounded=0;sketch=1;hachureGap=4;jiggle=2;orthogonalLoop=1;jettySize=auto;html=1;entryX=0.58;entryY=0.983;entryDx=0;entryDy=0;entryPerimeter=0;fontFamily=Architects Daughter;fontSource=https%3A%2F%2Ffonts.googleapis.com%2Fcss%3Ffamily%3DArchitects%2BDaughter;fontSize=16;" edge="1" parent="WIyWlLk6GJQsqaUBKTNV-1" source="9CYDn3pzDWSfcRw3aQHr-8" target="9CYDn3pzDWSfcRw3aQHr-2">
          <mxGeometry relative="1" as="geometry" />
        </mxCell>
        <mxCell id="9CYDn3pzDWSfcRw3aQHr-13" value="ref" style="edgeStyle=orthogonalEdgeStyle;rounded=0;sketch=1;hachureGap=4;jiggle=2;orthogonalLoop=1;jettySize=auto;html=1;exitX=1;exitY=0.5;exitDx=0;exitDy=0;entryX=0;entryY=0.5;entryDx=0;entryDy=0;fontFamily=Architects Daughter;fontSource=https%3A%2F%2Ffonts.googleapis.com%2Fcss%3Ffamily%3DArchitects%2BDaughter;fontSize=16;" edge="1" parent="WIyWlLk6GJQsqaUBKTNV-1" source="9CYDn3pzDWSfcRw3aQHr-8" target="9CYDn3pzDWSfcRw3aQHr-5">
          <mxGeometry relative="1" as="geometry" />
        </mxCell>
        <mxCell id="9CYDn3pzDWSfcRw3aQHr-15" style="edgeStyle=orthogonalEdgeStyle;rounded=0;sketch=1;hachureGap=4;jiggle=2;orthogonalLoop=1;jettySize=auto;html=1;exitX=0.5;exitY=1;exitDx=0;exitDy=0;entryX=0.5;entryY=0;entryDx=0;entryDy=0;fontFamily=Architects Daughter;fontSource=https%3A%2F%2Ffonts.googleapis.com%2Fcss%3Ffamily%3DArchitects%2BDaughter;fontSize=16;" edge="1" parent="WIyWlLk6GJQsqaUBKTNV-1" source="9CYDn3pzDWSfcRw3aQHr-8" target="9CYDn3pzDWSfcRw3aQHr-14">
          <mxGeometry relative="1" as="geometry" />
        </mxCell>
        <mxCell id="9CYDn3pzDWSfcRw3aQHr-8" value="IncrementSourceEnumerator" style="rounded=0;whiteSpace=wrap;html=1;sketch=1;hachureGap=4;jiggle=2;fontFamily=Architects Daughter;fontSource=https%3A%2F%2Ffonts.googleapis.com%2Fcss%3Ffamily%3DArchitects%2BDaughter;fontSize=20;" vertex="1" parent="WIyWlLk6GJQsqaUBKTNV-1">
          <mxGeometry x="770" y="610" width="310" height="60" as="geometry" />
        </mxCell>
        <mxCell id="9CYDn3pzDWSfcRw3aQHr-16" style="edgeStyle=orthogonalEdgeStyle;rounded=0;sketch=1;hachureGap=4;jiggle=2;orthogonalLoop=1;jettySize=auto;html=1;exitX=1;exitY=0.5;exitDx=0;exitDy=0;entryX=0.5;entryY=1;entryDx=0;entryDy=0;fontFamily=Architects Daughter;fontSource=https%3A%2F%2Ffonts.googleapis.com%2Fcss%3Ffamily%3DArchitects%2BDaughter;fontSize=16;" edge="1" parent="WIyWlLk6GJQsqaUBKTNV-1" source="9CYDn3pzDWSfcRw3aQHr-14" target="9CYDn3pzDWSfcRw3aQHr-5">
          <mxGeometry relative="1" as="geometry" />
        </mxCell>
        <mxCell id="9CYDn3pzDWSfcRw3aQHr-17" value="open" style="edgeLabel;html=1;align=center;verticalAlign=middle;resizable=0;points=[];fontSize=20;fontFamily=Architects Daughter;" vertex="1" connectable="0" parent="9CYDn3pzDWSfcRw3aQHr-16">
          <mxGeometry x="0.2314" y="-2" relative="1" as="geometry">
            <mxPoint as="offset" />
          </mxGeometry>
        </mxCell>
        <mxCell id="9CYDn3pzDWSfcRw3aQHr-14" value="start()" style="rounded=0;whiteSpace=wrap;html=1;sketch=1;hachureGap=4;jiggle=2;fontFamily=Architects Daughter;fontSource=https%3A%2F%2Ffonts.googleapis.com%2Fcss%3Ffamily%3DArchitects%2BDaughter;fontSize=20;" vertex="1" parent="WIyWlLk6GJQsqaUBKTNV-1">
          <mxGeometry x="775" y="710" width="310" height="60" as="geometry" />
        </mxCell>
        <mxCell id="9CYDn3pzDWSfcRw3aQHr-21" value="discoverTables" style="edgeStyle=orthogonalEdgeStyle;rounded=0;sketch=1;hachureGap=4;jiggle=2;orthogonalLoop=1;jettySize=auto;html=1;exitX=1;exitY=0.5;exitDx=0;exitDy=0;entryX=0;entryY=0.5;entryDx=0;entryDy=0;fontFamily=Architects Daughter;fontSource=https%3A%2F%2Ffonts.googleapis.com%2Fcss%3Ffamily%3DArchitects%2BDaughter;fontSize=16;" edge="1" parent="WIyWlLk6GJQsqaUBKTNV-1" source="9CYDn3pzDWSfcRw3aQHr-18" target="9CYDn3pzDWSfcRw3aQHr-20">
          <mxGeometry relative="1" as="geometry" />
        </mxCell>
        <mxCell id="9CYDn3pzDWSfcRw3aQHr-18" value="SnapshotSplitAssigner" style="rounded=0;whiteSpace=wrap;html=1;sketch=1;hachureGap=4;jiggle=2;fontFamily=Architects Daughter;fontSource=https%3A%2F%2Ffonts.googleapis.com%2Fcss%3Ffamily%3DArchitects%2BDaughter;fontSize=20;" vertex="1" parent="WIyWlLk6GJQsqaUBKTNV-1">
          <mxGeometry x="1450" y="610" width="200" height="60" as="geometry" />
        </mxCell>
        <mxCell id="9CYDn3pzDWSfcRw3aQHr-20" value="LinkedList&amp;lt;TableId&amp;gt;&lt;br&gt;remainingTables" style="rounded=0;whiteSpace=wrap;html=1;sketch=1;hachureGap=4;jiggle=2;fontFamily=Architects Daughter;fontSource=https%3A%2F%2Ffonts.googleapis.com%2Fcss%3Ffamily%3DArchitects%2BDaughter;fontSize=20;" vertex="1" parent="WIyWlLk6GJQsqaUBKTNV-1">
          <mxGeometry x="1800" y="610" width="200" height="60" as="geometry" />
        </mxCell>
        <mxCell id="9CYDn3pzDWSfcRw3aQHr-24" style="edgeStyle=orthogonalEdgeStyle;rounded=0;sketch=1;hachureGap=4;jiggle=2;orthogonalLoop=1;jettySize=auto;html=1;fontFamily=Architects Daughter;fontSource=https%3A%2F%2Ffonts.googleapis.com%2Fcss%3Ffamily%3DArchitects%2BDaughter;fontSize=16;" edge="1" parent="WIyWlLk6GJQsqaUBKTNV-1" source="9CYDn3pzDWSfcRw3aQHr-22" target="9CYDn3pzDWSfcRw3aQHr-23">
          <mxGeometry relative="1" as="geometry" />
        </mxCell>
        <mxCell id="9CYDn3pzDWSfcRw3aQHr-22" value="SourceOperatorStreamTask" style="rounded=0;whiteSpace=wrap;html=1;sketch=1;hachureGap=4;jiggle=2;fontFamily=Architects Daughter;fontSource=https%3A%2F%2Ffonts.googleapis.com%2Fcss%3Ffamily%3DArchitects%2BDaughter;fontSize=20;" vertex="1" parent="WIyWlLk6GJQsqaUBKTNV-1">
          <mxGeometry x="60" y="-120" width="200" height="60" as="geometry" />
        </mxCell>
        <mxCell id="9CYDn3pzDWSfcRw3aQHr-26" style="edgeStyle=orthogonalEdgeStyle;rounded=0;sketch=1;hachureGap=4;jiggle=2;orthogonalLoop=1;jettySize=auto;html=1;entryX=0;entryY=0.5;entryDx=0;entryDy=0;fontFamily=Architects Daughter;fontSource=https%3A%2F%2Ffonts.googleapis.com%2Fcss%3Ffamily%3DArchitects%2BDaughter;fontSize=16;" edge="1" parent="WIyWlLk6GJQsqaUBKTNV-1" source="9CYDn3pzDWSfcRw3aQHr-23" target="9CYDn3pzDWSfcRw3aQHr-25">
          <mxGeometry relative="1" as="geometry" />
        </mxCell>
        <mxCell id="9CYDn3pzDWSfcRw3aQHr-23" value="init()" style="rounded=0;whiteSpace=wrap;html=1;sketch=1;hachureGap=4;jiggle=2;fontFamily=Architects Daughter;fontSource=https%3A%2F%2Ffonts.googleapis.com%2Fcss%3Ffamily%3DArchitects%2BDaughter;fontSize=20;" vertex="1" parent="WIyWlLk6GJQsqaUBKTNV-1">
          <mxGeometry x="380" y="-120" width="200" height="60" as="geometry" />
        </mxCell>
        <mxCell id="9CYDn3pzDWSfcRw3aQHr-28" value="new" style="edgeStyle=orthogonalEdgeStyle;rounded=0;sketch=1;hachureGap=4;jiggle=2;orthogonalLoop=1;jettySize=auto;html=1;entryX=0;entryY=0.5;entryDx=0;entryDy=0;fontFamily=Architects Daughter;fontSource=https%3A%2F%2Ffonts.googleapis.com%2Fcss%3Ffamily%3DArchitects%2BDaughter;fontSize=16;" edge="1" parent="WIyWlLk6GJQsqaUBKTNV-1" source="9CYDn3pzDWSfcRw3aQHr-25" target="9CYDn3pzDWSfcRw3aQHr-27">
          <mxGeometry relative="1" as="geometry" />
        </mxCell>
        <mxCell id="9CYDn3pzDWSfcRw3aQHr-30" style="edgeStyle=orthogonalEdgeStyle;rounded=0;sketch=1;hachureGap=4;jiggle=2;orthogonalLoop=1;jettySize=auto;html=1;entryX=0.47;entryY=-0.067;entryDx=0;entryDy=0;entryPerimeter=0;fontFamily=Architects Daughter;fontSource=https%3A%2F%2Ffonts.googleapis.com%2Fcss%3Ffamily%3DArchitects%2BDaughter;fontSize=16;" edge="1" parent="WIyWlLk6GJQsqaUBKTNV-1" source="9CYDn3pzDWSfcRw3aQHr-25" target="9CYDn3pzDWSfcRw3aQHr-29">
          <mxGeometry relative="1" as="geometry" />
        </mxCell>
        <mxCell id="9CYDn3pzDWSfcRw3aQHr-25" value="initReader()" style="rounded=0;whiteSpace=wrap;html=1;sketch=1;hachureGap=4;jiggle=2;fontFamily=Architects Daughter;fontSource=https%3A%2F%2Ffonts.googleapis.com%2Fcss%3Ffamily%3DArchitects%2BDaughter;fontSize=20;" vertex="1" parent="WIyWlLk6GJQsqaUBKTNV-1">
          <mxGeometry x="640" y="-120" width="200" height="60" as="geometry" />
        </mxCell>
        <mxCell id="9CYDn3pzDWSfcRw3aQHr-27" value="SourceReaderContext" style="rounded=0;whiteSpace=wrap;html=1;sketch=1;hachureGap=4;jiggle=2;fontFamily=Architects Daughter;fontSource=https%3A%2F%2Ffonts.googleapis.com%2Fcss%3Ffamily%3DArchitects%2BDaughter;fontSize=20;" vertex="1" parent="WIyWlLk6GJQsqaUBKTNV-1">
          <mxGeometry x="930" y="-120" width="200" height="60" as="geometry" />
        </mxCell>
        <mxCell id="9CYDn3pzDWSfcRw3aQHr-29" value="source::createReader" style="rounded=0;whiteSpace=wrap;html=1;sketch=1;hachureGap=4;jiggle=2;fontFamily=Architects Daughter;fontSource=https%3A%2F%2Ffonts.googleapis.com%2Fcss%3Ffamily%3DArchitects%2BDaughter;fontSize=20;" vertex="1" parent="WIyWlLk6GJQsqaUBKTNV-1">
          <mxGeometry x="645" width="200" height="60" as="geometry" />
        </mxCell>
        <mxCell id="9CYDn3pzDWSfcRw3aQHr-32" value="IncrementSourceSplitReader" style="rounded=0;whiteSpace=wrap;html=1;sketch=1;hachureGap=4;jiggle=2;fontFamily=Architects Daughter;fontSource=https%3A%2F%2Ffonts.googleapis.com%2Fcss%3Ffamily%3DArchitects%2BDaughter;fontSize=20;" vertex="1" parent="WIyWlLk6GJQsqaUBKTNV-1">
          <mxGeometry x="950" y="120" width="270" height="60" as="geometry" />
        </mxCell>
        <mxCell id="9CYDn3pzDWSfcRw3aQHr-37" style="edgeStyle=orthogonalEdgeStyle;rounded=0;sketch=1;hachureGap=4;jiggle=2;orthogonalLoop=1;jettySize=auto;html=1;fontFamily=Architects Daughter;fontSource=https%3A%2F%2Ffonts.googleapis.com%2Fcss%3Ffamily%3DArchitects%2BDaughter;fontSize=16;" edge="1" parent="WIyWlLk6GJQsqaUBKTNV-1" source="9CYDn3pzDWSfcRw3aQHr-35" target="9CYDn3pzDWSfcRw3aQHr-1">
          <mxGeometry relative="1" as="geometry" />
        </mxCell>
        <mxCell id="9CYDn3pzDWSfcRw3aQHr-38" value="start()" style="edgeLabel;html=1;align=center;verticalAlign=middle;resizable=0;points=[];fontSize=20;fontFamily=Architects Daughter;" vertex="1" connectable="0" parent="9CYDn3pzDWSfcRw3aQHr-37">
          <mxGeometry x="-0.0429" y="-3" relative="1" as="geometry">
            <mxPoint as="offset" />
          </mxGeometry>
        </mxCell>
        <mxCell id="9CYDn3pzDWSfcRw3aQHr-35" value="SourceOperator.open" style="rounded=0;whiteSpace=wrap;html=1;sketch=1;hachureGap=4;jiggle=2;fontFamily=Architects Daughter;fontSource=https%3A%2F%2Ffonts.googleapis.com%2Fcss%3Ffamily%3DArchitects%2BDaughter;fontSize=20;" vertex="1" parent="WIyWlLk6GJQsqaUBKTNV-1">
          <mxGeometry x="270" y="120" width="200" height="60" as="geometry" />
        </mxCell>
        <mxCell id="9CYDn3pzDWSfcRw3aQHr-42" style="edgeStyle=orthogonalEdgeStyle;rounded=0;sketch=1;hachureGap=4;jiggle=2;orthogonalLoop=1;jettySize=auto;html=1;fontFamily=Architects Daughter;fontSource=https%3A%2F%2Ffonts.googleapis.com%2Fcss%3Ffamily%3DArchitects%2BDaughter;fontSize=16;" edge="1" parent="WIyWlLk6GJQsqaUBKTNV-1" source="9CYDn3pzDWSfcRw3aQHr-39" target="9CYDn3pzDWSfcRw3aQHr-41">
          <mxGeometry relative="1" as="geometry" />
        </mxCell>
        <mxCell id="9CYDn3pzDWSfcRw3aQHr-39" value="context.sendSplitRequest" style="rounded=0;whiteSpace=wrap;html=1;sketch=1;hachureGap=4;jiggle=2;fontFamily=Architects Daughter;fontSource=https%3A%2F%2Ffonts.googleapis.com%2Fcss%3Ffamily%3DArchitects%2BDaughter;fontSize=20;" vertex="1" parent="WIyWlLk6GJQsqaUBKTNV-1">
          <mxGeometry x="605" y="250" width="270" height="60" as="geometry" />
        </mxCell>
        <mxCell id="9CYDn3pzDWSfcRw3aQHr-44" style="edgeStyle=orthogonalEdgeStyle;rounded=0;sketch=1;hachureGap=4;jiggle=2;orthogonalLoop=1;jettySize=auto;html=1;fontFamily=Architects Daughter;fontSource=https%3A%2F%2Ffonts.googleapis.com%2Fcss%3Ffamily%3DArchitects%2BDaughter;fontSize=16;" edge="1" parent="WIyWlLk6GJQsqaUBKTNV-1" source="9CYDn3pzDWSfcRw3aQHr-41" target="9CYDn3pzDWSfcRw3aQHr-5">
          <mxGeometry relative="1" as="geometry" />
        </mxCell>
        <mxCell id="9CYDn3pzDWSfcRw3aQHr-45" value="getNext" style="edgeLabel;html=1;align=center;verticalAlign=middle;resizable=0;points=[];fontSize=20;fontFamily=Architects Daughter;" vertex="1" connectable="0" parent="9CYDn3pzDWSfcRw3aQHr-44">
          <mxGeometry x="0.0562" relative="1" as="geometry">
            <mxPoint as="offset" />
          </mxGeometry>
        </mxCell>
        <mxCell id="9CYDn3pzDWSfcRw3aQHr-47" style="edgeStyle=orthogonalEdgeStyle;rounded=0;sketch=1;hachureGap=4;jiggle=2;orthogonalLoop=1;jettySize=auto;html=1;fontFamily=Architects Daughter;fontSource=https%3A%2F%2Ffonts.googleapis.com%2Fcss%3Ffamily%3DArchitects%2BDaughter;fontSize=16;" edge="1" parent="WIyWlLk6GJQsqaUBKTNV-1" source="9CYDn3pzDWSfcRw3aQHr-41" target="9CYDn3pzDWSfcRw3aQHr-46">
          <mxGeometry relative="1" as="geometry" />
        </mxCell>
        <mxCell id="9CYDn3pzDWSfcRw3aQHr-41" value="SplitEnumerator.handlerSplitRequest" style="rounded=0;whiteSpace=wrap;html=1;sketch=1;hachureGap=4;jiggle=2;fontFamily=Architects Daughter;fontSource=https%3A%2F%2Ffonts.googleapis.com%2Fcss%3Ffamily%3DArchitects%2BDaughter;fontSize=20;" vertex="1" parent="WIyWlLk6GJQsqaUBKTNV-1">
          <mxGeometry x="990" y="250" width="270" height="60" as="geometry" />
        </mxCell>
        <mxCell id="9CYDn3pzDWSfcRw3aQHr-49" value="AddSplitEvent" style="edgeStyle=orthogonalEdgeStyle;rounded=0;sketch=1;hachureGap=4;jiggle=2;orthogonalLoop=1;jettySize=auto;html=1;entryX=0.5;entryY=0;entryDx=0;entryDy=0;fontFamily=Architects Daughter;fontSource=https%3A%2F%2Ffonts.googleapis.com%2Fcss%3Ffamily%3DArchitects%2BDaughter;fontSize=16;" edge="1" parent="WIyWlLk6GJQsqaUBKTNV-1" source="9CYDn3pzDWSfcRw3aQHr-46" target="9CYDn3pzDWSfcRw3aQHr-48">
          <mxGeometry relative="1" as="geometry" />
        </mxCell>
        <mxCell id="9CYDn3pzDWSfcRw3aQHr-46" value="SourceOperator.handlerOperatorEvent()" style="rounded=0;whiteSpace=wrap;html=1;sketch=1;hachureGap=4;jiggle=2;fontFamily=Architects Daughter;fontSource=https%3A%2F%2Ffonts.googleapis.com%2Fcss%3Ffamily%3DArchitects%2BDaughter;fontSize=20;" vertex="1" parent="WIyWlLk6GJQsqaUBKTNV-1">
          <mxGeometry x="1400" y="250" width="270" height="60" as="geometry" />
        </mxCell>
        <mxCell id="9CYDn3pzDWSfcRw3aQHr-51" value="addSplits" style="edgeStyle=orthogonalEdgeStyle;rounded=0;sketch=1;hachureGap=4;jiggle=2;orthogonalLoop=1;jettySize=auto;html=1;entryX=0;entryY=0.5;entryDx=0;entryDy=0;fontFamily=Architects Daughter;fontSource=https%3A%2F%2Ffonts.googleapis.com%2Fcss%3Ffamily%3DArchitects%2BDaughter;fontSize=16;" edge="1" parent="WIyWlLk6GJQsqaUBKTNV-1" source="9CYDn3pzDWSfcRw3aQHr-48" target="9CYDn3pzDWSfcRw3aQHr-50">
          <mxGeometry relative="1" as="geometry" />
        </mxCell>
        <mxCell id="9CYDn3pzDWSfcRw3aQHr-48" value="handleAddSplitsEvent" style="rounded=0;whiteSpace=wrap;html=1;sketch=1;hachureGap=4;jiggle=2;fontFamily=Architects Daughter;fontSource=https%3A%2F%2Ffonts.googleapis.com%2Fcss%3Ffamily%3DArchitects%2BDaughter;fontSize=20;" vertex="1" parent="WIyWlLk6GJQsqaUBKTNV-1">
          <mxGeometry x="1400" y="380" width="270" height="60" as="geometry" />
        </mxCell>
        <mxCell id="9CYDn3pzDWSfcRw3aQHr-50" value="IncrementSourceReader" style="rounded=0;whiteSpace=wrap;html=1;sketch=1;hachureGap=4;jiggle=2;fontFamily=Architects Daughter;fontSource=https%3A%2F%2Ffonts.googleapis.com%2Fcss%3Ffamily%3DArchitects%2BDaughter;fontSize=20;" vertex="1" parent="WIyWlLk6GJQsqaUBKTNV-1">
          <mxGeometry x="1765" y="380" width="270" height="60" as="geometry" />
        </mxCell>
      </root>
    </mxGraphModel>
  </diagram>
</mxfile>
